<svg width="298" height="301" viewBox="0 0 298 301" fill="none" xmlns="http://www.w3.org/2000/svg">
<path d="M0.0140241 149.111C0.534361 93.435 46.6275 42.984 69.2838 26.8319C99.8536 5.04283 126.196 -1.13617 156.115 0.164676C186.034 1.46552 233.515 21.6286 258.556 55.4504C283.597 89.2723 296.281 119.517 297.907 156.591C299.533 193.665 279.695 237.893 255.954 256.43C236.131 271.909 192.213 299.683 139.854 300.009C87.4956 300.334 52.6981 276.268 37.088 258.707C21.4779 241.146 -0.636397 218.706 0.0140241 149.111Z" fill="#381501"/>
<path d="M60.1779 162.445C49.511 136.948 49.446 108.785 50.0964 97.4026C50.8026 85.0446 55.625 71.0606 59.5275 61.6295C65.8593 46.3276 87.8208 23.2547 105.382 14.1488C122.944 5.04289 165.221 -3.41258 213.677 24.8807C262.134 53.174 279.37 95.7766 287.5 124.395C295.63 153.014 292.703 194.966 268.638 229.763C244.572 264.561 211.076 273.992 180.831 270.089C150.586 266.187 119.691 243.422 100.829 223.909C81.967 204.397 73.5115 194.315 60.1779 162.445Z" fill="#EFE8D5"/>
<path d="M83.5931 181.307C73.9669 167.778 77.4141 153.989 80.341 148.786C70.5847 138.379 67.983 136.298 64.0805 120.167C59.2023 100.004 67.983 89.5975 68.9586 87.9715C69.7391 86.6706 69.9343 85.4782 69.9343 85.0446C69.609 70.0849 69.2838 67.4832 78.0645 55.4504C86.8452 43.4177 97.9023 40.4908 101.48 40.816C104.342 41.0761 105.274 39.8403 105.382 39.1899C106.358 28.1328 116.114 16.4252 133.675 15.4496C151.237 14.474 157.741 20.0026 160.668 21.3034C163.009 22.3441 164.679 22.3874 165.221 22.279C181.481 16.1 198.392 25.8563 202.295 28.1328C206.197 30.4093 215.303 34.9622 221.807 46.3446C224.788 51.5596 224.632 54.0093 226.035 54.1496C232.682 54.8143 240.344 59.6782 242.946 61.6295C245.548 63.5807 250.426 67.4833 259.857 82.4429C269.288 97.4026 265.386 109.435 265.386 111.712C265.386 113.533 266.036 115.94 266.361 116.915C285.223 139.68 285.223 153.664 281.971 168.949C278.719 184.234 272.215 192.039 266.687 196.592C261.158 201.145 260.508 208.625 259.207 215.779C257.906 222.934 246.849 236.918 238.718 242.446C230.588 247.975 220.507 247.975 212.702 247.975C206.458 247.975 201.428 249.276 199.693 249.926C185.384 255.455 177.904 255.13 160.343 249.926C142.781 244.723 131.399 229.763 129.123 224.56C127.301 220.397 125.112 219.357 124.244 219.357C107.984 218.381 95.6259 198.218 83.5931 181.307Z" fill="#381501"/>
<path d="M90.7477 182.933C77.4792 164.201 84.7396 154.742 90.7477 150.737C92.699 149.436 94.4854 148.529 96.2763 148.135C125.87 141.631 110.586 146.184 135.627 139.355C160.668 132.525 161.318 132.85 163.27 135.127C164.831 136.948 158.934 150.412 155.79 156.916C151.996 164.721 142.001 184.624 132.375 201.795C120.342 223.259 107.333 206.348 90.7477 182.933Z" fill="#EFE8D5"/>
<path d="M219.856 165.372C206.588 157.827 197.742 148.461 194.49 144.883C194.053 144.402 195.465 144.51 196.441 144.651C199.651 145.115 205.457 146.382 208.799 147.16C209.775 147.387 212.246 147.03 211.726 146.509C211.076 145.859 200.994 142.607 196.441 141.956C191.888 141.306 189.937 140.981 187.986 134.802C186.034 128.623 203.271 128.948 208.799 128.298C214.328 127.647 235.141 125.696 245.548 122.444C253.873 119.842 260.074 121.36 262.134 122.444C271.239 128.298 277.744 145.209 277.744 153.339C277.744 161.469 277.744 165.372 270.914 180.331C264.085 195.291 253.353 189.112 250.101 186.51C247.499 184.429 228.854 171.551 219.856 165.372Z" fill="#EFE8D5"/>
<path d="M130.098 21.6285C116.049 24.7506 112.103 33.9865 111.886 38.2143C111.886 43.7428 114.813 48.2958 118.391 52.5236C121.968 56.7513 129.448 67.158 132.7 71.711C135.302 75.3533 145.925 89.0555 150.912 95.4513C156.007 102.172 166.457 114.639 167.497 110.736C168.798 105.858 164.57 69.1093 164.245 63.5807C163.92 58.0521 162.294 33.6613 159.367 29.7588C156.44 25.8563 147.66 17.726 130.098 21.6285Z" fill="#EFE8D5"/>
<path d="M217.905 54.4748C215.043 36.0028 191.129 27.9159 179.53 26.1815C168.148 24.5554 167.497 31.3848 167.497 36.263C167.497 41.1412 170.749 69.1092 170.749 71.3857C170.749 73.6622 173.351 102.606 174.002 107.159C174.652 111.712 175.953 113.013 178.229 112.687C180.05 112.427 182.674 108.893 183.758 107.159C193.124 93.3699 199.368 85.3698 201.319 83.0933C211.466 69.0442 218.661 59.3529 217.905 54.4748Z" fill="#EFE8D5"/>
<path d="M86.1948 141.306C68.2432 137.664 67.2242 115.289 68.9587 104.557C71.8855 89.5975 80.9914 91.5488 88.1461 94.1504L119.691 107.809C127.713 111.603 145.383 120.102 151.887 123.745C160.018 128.298 160.018 125.371 160.343 123.094C160.603 121.273 158.066 119.734 156.765 119.192L123.919 104.557C114.054 100.438 92.9592 91.5488 87.4956 88.9471C82.0321 86.3454 79.5822 84.1773 79.0402 83.4185C72.536 74.6378 75.7881 68.1336 87.8209 53.8244C99.8536 39.5151 111.236 51.8731 115.464 56.7513C119.691 61.6294 137.578 86.9958 138.228 87.6463C138.879 88.2967 152.538 105.858 158.066 112.687C163.595 119.517 167.172 117.24 168.148 116.915C169.123 116.59 169.774 114.964 171.4 115.614C173.026 116.265 178.344 120.833 181 120C184.196 118.998 187.976 111.109 190.913 107.159L204.246 87.3211C207.932 82.5513 216.344 71.6459 220.507 66.1823C225.71 59.3529 231.564 60.979 233.84 61.9546C236.117 62.9302 258.556 78.8655 259.857 97.7277C261.158 116.59 252.703 115.94 248.8 116.915C244.897 117.891 239.369 118.541 231.564 120.492C223.759 122.444 208.474 122.769 196.441 123.745C184.408 124.72 182.976 121.675 182 122C181.127 122.291 180.506 129.598 183.433 129.598C185.774 129.598 185.926 130.249 185.709 130.574C185.449 131.615 183.433 132.699 182.782 133.826C177.904 142.282 196.766 154.64 199.368 156.591C201.449 158.152 215.412 168.082 222.133 172.851C229.721 178.597 245.808 190.673 249.45 193.014C254.003 195.941 260.508 219.356 237.418 235.292C218.946 248.04 209.124 241.254 206.523 236.267C203.596 230.088 200.994 217.405 200.344 215.129C199.693 212.852 191.238 186.835 189.612 177.729C187.986 168.624 180.506 143.908 175.953 142.607C171.4 141.306 171.725 143.582 173.676 144.883C175.237 145.924 177.362 154.206 178.229 158.217C185.059 182.282 198.848 230.869 199.368 232.69C200.018 234.967 200.669 244.723 192.864 246.674C185.059 248.625 174.652 252.203 156.115 242.446C137.578 232.69 133.35 224.56 133.676 218.706C134.001 212.852 140.505 196.266 149.286 181.307C166.522 150.087 168.473 144.558 169.123 140.005C169.774 135.452 164.896 131.875 161.969 129.598C159.627 127.777 154.272 128.84 151.887 129.598C139.096 133.067 111.691 140.265 104.407 141.306C97.1219 142.347 89.2301 141.74 86.1948 141.306Z" fill="#EFE8D5"/>
<path d="M181.807 58.0533C181.156 58.3785 179.595 62.2811 181.156 66.1836C183.107 71.0617 183.107 57.7269 181.807 58.0533Z" fill="#381501"/>
<path d="M226.686 219.682C225.645 218.901 222.566 213.503 221.157 210.901C221.157 210.25 225.71 216.104 226.36 217.08C227.011 218.056 227.986 220.657 226.686 219.682Z" fill="#381501"/>
<path d="M182.132 243.422C180.05 241.861 179.313 229.98 179.205 224.235C179.191 223.584 179.53 221.958 180.831 222.608C182.132 223.259 182.132 224.56 182.132 225.535C182.132 226.511 183.433 240.82 183.433 241.471C183.433 242.121 184.733 245.373 182.132 243.422Z" fill="#381501"/>
<path d="M107.659 164.071C107.919 163.29 111.236 161.361 112.862 160.493C114.488 159.735 117.87 158.217 118.391 158.217C119.041 158.217 123.919 158.542 122.293 160.168C120.667 161.794 110.586 167.973 109.61 167.973C108.634 167.973 107.333 165.046 107.659 164.071Z" fill="#381501"/>
<path d="M242.621 106.834C241.84 103.972 238.393 105.533 236.117 106.509C233.515 107.624 228.312 111.712 235.466 110.411C241.241 109.361 242.838 107.593 242.621 106.834Z" fill="#381501"/>
<path d="M211.075 107.159C209.514 104.817 201.807 111.061 199.368 113.338C199.206 113.489 201.893 112.469 204.897 111.387C208.323 110.152 212.118 108.722 211.075 107.159Z" fill="#381501"/>
<path d="M92.3738 114.314C91.3331 117.436 86.1948 114.855 83.5931 113.013C83.2679 112.687 83.2679 112.037 84.2435 111.712C84.9334 111.482 86.236 111.647 87.8208 111.712C90.382 111.816 93.1773 111.903 92.3738 114.314Z" fill="#381501"/>
<path d="M230.588 205.369C225.125 199.385 225.71 197.456 226.686 197.239C230.848 196.719 238.718 209.6 239.044 211.223C237.743 216.101 237.418 212.849 230.588 205.369Z" fill="#381501"/>
<path d="M200.018 68.1336C198.978 67.093 201.536 58.3773 202.945 54.1496C204.633 48.621 208.474 51.2227 205.222 59.6782C201.97 68.1336 201.319 69.4345 200.018 68.1336Z" fill="#381501"/>
<path d="M10.4207 191.714C10.4207 189.112 13.4174 184.234 15.6241 180.982C17.9006 177.627 27.0065 162.119 28.9577 159.193C30.909 156.266 36.7628 147.16 39.6897 142.932C42.6166 138.704 44.5678 137.729 45.2183 138.379C45.8687 139.03 45.2183 140.005 40.6653 146.509C36.1124 153.014 33.1855 158.217 30.5838 162.119C27.9821 166.022 20.5023 177.404 15.2989 188.136C10.0955 198.868 10.4207 195.616 10.4207 191.714Z" fill="#EFE8D5"/>
<path d="M14.6485 201.47C14.3883 199.909 16.2745 197.567 17.2502 195.941C17.2502 195.941 19.2014 192.689 20.8275 189.762C22.4535 186.835 36.1124 162.77 38.0636 160.493C40.0149 158.217 44.5678 151.713 45.2183 152.363C45.7386 152.883 45.0014 154.314 44.5678 154.965C39.6897 160.493 35.4619 169.315 31.8846 175.128C28.3073 180.941 20.1771 195.941 17.9006 199.519C15.6241 203.096 14.9737 203.421 14.6485 201.47Z" fill="#EFE8D5"/>
<path d="M20.5023 209.6C20.5023 206.998 25.4888 198.977 27.9821 195.291C31.5594 189.636 36.4376 180.982 40.9905 173.827C45.5435 166.672 48.4704 163.746 48.7956 164.071C49.1208 164.396 49.7712 163.746 47.1695 166.672C44.5678 169.599 37.7384 182.608 35.7872 185.535C33.8359 188.461 26.0308 201.47 24.4048 204.072C22.7787 206.673 20.5023 212.852 20.5023 209.6Z" fill="#EFE8D5"/>
<path d="M8.46948 178.705C8.46948 177.404 9.98713 174.477 10.746 173.177C12.095 170.575 18.551 160.493 21.8031 155.615C25.0552 150.737 32.535 139.355 37.088 132.851C41.6409 126.346 42.9418 126.346 43.5922 126.997C44.2426 127.647 41.9661 130.574 38.0636 135.777C34.1611 140.981 22.4535 159.193 20.5023 162.77C18.551 166.347 13.0224 176.754 10.746 180.006C8.46948 183.258 8.46948 180.331 8.46948 178.705Z" fill="#EFE8D5"/>
<path d="M6.84344 166.998C7.36378 172.721 8.7947 167.648 10.746 164.071C12.372 161.09 13.9981 158.217 13.9981 158.217C15.9493 154.64 25.7056 140.33 28.3073 136.428C30.909 132.525 40.0149 120.492 40.9905 119.192C41.9662 117.891 41.9662 113.988 38.7141 117.24C35.4619 120.492 30.2586 127.972 26.6813 133.501C23.104 139.029 13.0224 154.965 9.77033 159.192C7.16865 162.575 6.73504 165.805 6.84344 166.998Z" fill="#EFE8D5"/>
<path d="M34.4863 111.387C29.0228 118.411 14.6485 139.138 7.8191 149.111C6.84345 150.412 6.51824 153.014 6.84345 154.314C7.01982 155.02 7.38547 155.615 8.4695 153.664C10.0956 150.737 19.2014 136.103 21.1527 133.176C23.104 130.249 37.4132 111.387 39.6897 107.809C41.9662 104.232 41.3157 102.606 34.4863 111.387Z" fill="#EFE8D5"/>
<path d="M38.714 94.8008C31.6895 105.468 15.1905 126.997 9.1199 135.127C8.02047 136.599 7.81905 139.029 8.46948 139.355C9.1199 139.68 9.1199 139.355 10.7459 137.078C12.372 134.802 14.6485 131.224 17.2502 127.647C19.8518 124.07 27.6569 113.013 28.6325 111.712C29.413 110.671 39.9051 96.6236 41.9662 94.1504C43.5922 92.1991 43.5922 91.5488 42.6166 91.2235C41.5694 90.8744 40.0149 92.8255 38.714 94.8008Z" fill="#EFE8D5"/>
<path d="M30.5838 92.8496C29.5431 94.4107 18.2258 111.061 12.372 119.192C12.0385 119.655 12.1118 121.338 12.372 122.119C12.6322 122.899 14.5711 119.842 15.6241 118.541C21.1527 111.712 24.4048 106.183 25.7056 104.557C27.0065 102.931 33.8359 92.5244 34.8115 90.8984C35.7872 89.2723 39.0392 84.3941 40.9905 81.4672C42.9418 78.5403 45.8687 74.6378 45.8687 73.9874C45.8687 73.337 45.8687 72.3613 44.893 73.337C43.9174 74.3126 31.8846 90.8984 30.5838 92.8496Z" fill="#EFE8D5"/>
<path d="M26.6699 86.5175C24.0821 90.26 20.5925 97.4331 19.3182 100.844C18.5256 102.891 21.9648 97.628 23.7292 94.7042C25.4936 91.7803 31.6692 82.7164 37.8447 74.5297C44.0201 66.343 49.6075 60.7877 53.1364 54.94C56.0467 50.1174 53.9719 52.0161 42.8439 65.1735C31.9632 78.0384 29.6107 82.2646 26.6699 86.5175Z" fill="#EFE8D5"/>
</svg>
